<?xml version="1.0" encoding="utf-8"?>
<!-- Generator: Adobe Illustrator 18.0.0, SVG Export Plug-In . SVG Version: 6.00 Build 0)  -->
<!DOCTYPE svg PUBLIC "-//W3C//DTD SVG 1.1//EN" "http://www.w3.org/Graphics/SVG/1.1/DTD/svg11.dtd">
<svg xmlns="http://www.w3.org/2000/svg" xmlns:xlink="http://www.w3.org/1999/xlink" version="1.1" id="Слой_1" x="0px" y="0px" viewBox="0 240 768 784" enable-background="new 0 240 768 784" xml:space="preserve">
<path fill="#01455cff" stroke="" stroke-width="2" stroke-linecap="round" stroke-linejoin="round" stroke-miterlimit="10" d="  M315.4,514.9c0,0-38.3,36.7-52.8,0c0,0-1.5-16.8,18.4-39.8c0,0,36-42.1,49-108.7c0,0,12.2-55.1-67.4-98.8c0,0-84.2-40.6-100.3,0  c0,0-3.1,19.1-25.3,30.6c0,0-13,8.4-64.3,18.4c0,0-44.4-3.1-65.1,56.7c0,0-15.3,39.8,28.3,53.6c0,0-7.7-17.6,1.5-30.6  c0,0,11.5-8.4,15.3-14.5c0,0,6.9-8.4,26.8-6.9c0,0,55.1,4.6,72-10c0,0-27.6,40.6-88.8,39.8l-19.1-2.3c0,0-9.2,26.8,39,33.7  c0,0,20.7,2,44.4-15.6c0,0,55.9-32.6,91.9-13.5c0,0,16.1,22.2-32.9,59.7c0,0-75,46.7-85,103.4c0,0-4.6,15.3,0,17.6  c0,0-2.3,26,5.4,26c0,0,0.8,26,6.9,26c0,0-0.8,15.3,8.4,19.9c0,0-1.5,16.1,3.8,16.1c0,0,10.7,102.6,117.9,152.4  c0,0,61.2,24.5,77.3,24.5c0,0,61.2,23,65.8,19.9l-6.9,28.3c0,0-23.7,3.1-35.2-7.7c0,0-18.4-16.8-33.7-16.8c0,0-14.5,0-21.4,4.6  c0,0,10,2.3,15.3,4.6c0,0,5.7,11.2,15.6,14.6l9.6,7.6c0,0-37.5-6.1-43.6-7.7c0,0-16.8-5.4-24.5,0.8c0,0-16.1,8.4-16.1,13  c0,0,14.5-3.1,18.4,0c0,0,32.9,15.3,50.5,10c0,0,39,6.1,43.6,1.1c0,0,15.3,5-16.8,12.6c0,0-43.6-0.8-43.6,15.3  c0,0-11.5,8.4-10.7,16.8c0,0,11.5-7.7,20.7-8.4c0,0,20.7,0.8,30.6-6.1c0,0,24.5-3.1,32.9-10.7c0,0,12.2-3.8,19.9-13.8  c0,0,42.9,2.3,58.2-15.3c0,0,8.4-7.7,17.6-4.6c0,0,0.8-6.9-16.8-9.2c0,0-11.5-4.6-22.2,6.9c0,0-7.7,0.8-16.8,2.3  c0,0-10.7-3.8-5.4-13l3.8-19.9c0,0,77.3,5.4,101.1-13.8l9.2,12c1.5,3.6,1.6,27,1.6,27l-2.4,38.7c0,0-17.9,6.4-30.3-3.2  c0,0-19.9-15-35.1-13.6c0,0-14.5,1.4-20.9,6.6c0,0,10.1,1.3,15.7,3.1c0,0,6.7,10.6,16.9,13.1l10.3,6.6c0,0-37.9-2.5-44.2-3.5  c0,0-17.3-3.7-24.3,3.1c0,0-15.2,9.9-14.8,14.5c0,0,14.2-4.4,18.3-1.7c0,0,34.2,12.1,51.2,5.1c0,0,39.4,2.4,43.6-3  c0,0,15.7,3.5-15.6,14.2c0,0-43.5,3.4-42,19.4c0,0-10.6,9.5-9.1,17.8c0,0,10.7-8.7,19.8-10.3c0,0,20.7-1.2,29.9-9  c0,0,24.1-5.4,31.8-13.8c0,0,11.8-5,18.5-15.6c0,0,42.9-1.8,56.5-20.7c0,0,7.7-8.4,17.1-6.2c0,0,0.1-6.9-17.6-7.6  c0,0-11.9-3.5-21.5,9c0,0-7.5,1.5-16.5,3.9c0,0-16.4-3.9-12-13.5l1.9-60.1c0,0,6.1-7.4,9.9-21.2c0,0,4.6-10,8.4-17.6  c3.8-7.7,50.5-23.7,68.1-45.9c0,0,37.5-23.7,46.7-39.8c0,0,35.1-29.1,36.6-49.8c0,0,3.3-6.3,13.4-8.4c0,0,16.1-1.5,23.7-10  c0,0-14.1-27.6-27.8-34.5c0,0-26.8-53.6-42.9-66.6l-3.1-4.6c0,0,6.9,3.1,12.3-16.1c0,0,13.8,0,16.8-9.2c0,0,10.7,6.1,16.1,0.8  c0,0,24.3,6.1,28.6-1.5c0,0,13.5,3.1,14.3-13c0,0,3.1-34.5-19.9-41.3c0,0,18.4-44.4-16.8-60.5c0,0-27.6-22.2-42.1-6.9  c0,0-42.1-32.9-72-6.9c0,0-36.7,2.3-26.8,39c0,0-10.7,16.8-8.4,23c0,0-59.8-40.5-140.9-31.4c0,0-54.4,2.9-81.9,23.3  C359,476.9,320.7,501.9,315.4,514.9z"/>
</svg>
